<?xml version="1.0" standalone="no"?><!DOCTYPE svg PUBLIC "-//W3C//DTD SVG 1.1//EN" "http://www.w3.org/Graphics/SVG/1.1/DTD/svg11.dtd" ><svg xmlns="http://www.w3.org/2000/svg"><metadata>Generated by Glyphter</metadata><defs><font id="feeling" horiz-adv-x="0"><font-face units-per-em="1024" ascent="1024" descent="0" font-family="feeling" font-weight="normal" /><missing-glyph horiz-adv-x="0" /><glyph unicode="&#x0041;" d="M512,1024C227.061,1024,0,796.939,0,512C0,227.061,227.061,0,512,0C796.939,0,1024,227.061,1024,512C1024,796.939,796.939,1024,512,1024C512,1024,512,1024,512,1024M623.304,325.009C623.304,325.009,560.974,262.678,560.974,262.678C560.974,262.678,307.2,516.452,307.2,516.452C307.2,516.452,560.974,770.226,560.974,770.226C560.974,770.226,623.304,707.896,623.304,707.896C623.304,707.896,436.313,520.904,436.313,520.904C436.313,520.904,623.304,325.009,623.304,325.009C623.304,325.009,623.304,325.009,623.304,325.009" class="icon-arrow"/><glyph unicode="&#x0042;" d="M0.5,748.548C0.5,748.548,506.877,1010.945,506.877,1010.945C506.877,1010.945,1012.602,748.548,1012.602,748.548C1012.602,748.548,506.877,489.411,506.877,489.411C506.877,489.411,0.5,748.548,0.5,748.548M881.078,581.82C881.078,581.82,506.877,389.994,506.877,389.994C506.877,389.994,144.248,575.627,144.248,575.627C144.248,575.627,12.398,507.339,12.398,507.339C12.398,507.339,518.775,248.201,518.775,248.201C518.775,248.201,1024.5,507.339,1024.5,507.339C1024.5,507.339,881.078,581.82,881.078,581.82M881.078,347.619C881.078,347.619,506.877,155.792,506.877,155.792C506.877,155.792,144.248,341.426,144.248,341.426C144.248,341.426,12.398,273.137,12.398,273.137C12.398,273.137,518.775,14,518.775,14C518.775,14,1024.5,273.137,1024.5,273.137C1024.5,273.137,881.078,347.619,881.078,347.619" class="icon-category"/><glyph unicode="&#x0043;" d="M512,1024C230.4,1024,0,793.6,0,512C0,230.4,230.4,0,512,0C793.6,0,1024,230.4,1024,512C1024,793.6,793.6,1024,512,1024C512,1024,512,1024,512,1024M762.88,332.8C762.88,332.8,691.2,261.12,691.2,261.12C691.2,261.12,512,440.32,512,440.32C512,440.32,332.8,261.12,332.8,261.12C332.8,261.12,261.12,332.8,261.12,332.8C261.12,332.8,440.32,512,440.32,512C440.32,512,261.12,691.2,261.12,691.2C261.12,691.2,332.8,762.88,332.8,762.88C332.8,762.88,512,583.68,512,583.68C512,583.68,691.2,762.88,691.2,762.88C691.2,762.88,762.88,691.2,762.88,691.2C762.88,691.2,583.68,512,583.68,512C583.68,512,762.88,332.8,762.88,332.8C762.88,332.8,762.88,332.8,762.88,332.8" class="icon-close"/><glyph unicode="&#x0044;" d="M0.5,546.6C0.5,546.6,137.033,683.133,137.033,683.133C137.033,683.133,410.1,410.067,410.1,410.067C410.1,410.067,887.967,887.933,887.967,887.933C887.967,887.933,1024.5,751.4,1024.5,751.4C1024.5,751.4,410.1,137,410.1,137C410.1,137,0.5,546.6,0.5,546.6C0.5,546.6,0.5,546.6,0.5,546.6" class="icon-check"/><glyph unicode="&#x0045;" d="M592,0C592,0,592,448,592,448C592,448,784,448,784,448C784,448,816,640,816,640C816,640,592,640,592,640C592,640,592,736,592,736C592,800,624,832,688,832C688,832,784,832,784,832C784,832,784,1024,784,1024C752,1024,681.6,1024,624,1024C464,1024,400,928,400,768C400,768,400,640,400,640C400,640,208,640,208,640C208,640,208,448,208,448C208,448,400,448,400,448C400,448,400,0,400,0C400,0,592,0,592,0C592,0,592,0,592,0" class="icon-facebook"/><glyph unicode="&#x0046;" d="M737.28,973.1C645.12,973.1,563.2,927.02,512,855.34C460.8,927.02,378.88,973.1,286.72,973.1C128,973.1,0,845.1,0,686.38C0,461.1,512,51.5,512,51.5C512,51.5,1024,461.1,1024,686.38C1024,845.1,896,973.1,737.28,973.1C737.28,973.1,737.28,973.1,737.28,973.1" class="icon-heart-fill"/><glyph unicode="&#x0047;" d="M242.462,753.8C242.462,546.109,467.299,416.304,647.163,520.149C730.637,568.34,782.063,657.41,782.063,753.8C782.063,961.492,557.226,1091.297,377.362,987.451C293.888,939.261,242.462,850.19,242.462,753.8M666.304,445.717C620.73,421.107,567.863,406.523,512.263,406.523C456.662,406.523,403.796,421.107,358.221,445.717C263.427,360.949,118.5,266.154,118.5,0C118.5,0,509.528,0,509.528,0C509.528,0,514.997,0,514.997,0C514.997,0,906.025,0,906.025,0C906.025,266.154,761.099,360.949,666.304,445.717C666.304,445.717,666.304,445.717,666.304,445.717" class="icon-man"/><glyph unicode="&#x0048;" d="M32,224C32,224,416,224,416,224C435.2,224,448,233.6,448,249.6C448,249.6,448,297.6,448,297.6C448,310.4,435.2,323.2,416,323.2C416,323.2,32,323.2,32,323.2C12.8,323.2,0,313.6,0,297.6C0,297.6,0,249.6,0,249.6C0,233.6,12.8,224,32,224C32,224,32,224,32,224M32,96C32,96,416,96,416,96C435.2,96,448,105.6,448,121.6C448,121.6,448,169.6,448,169.6C448,182.4,435.2,195.2,416,195.2C416,195.2,32,195.2,32,195.2C12.8,195.2,0,185.6,0,169.6C0,169.6,0,121.6,0,121.6C0,105.6,12.8,96,32,96C32,96,32,96,32,96M32,352C32,352,416,352,416,352C435.2,352,448,361.6,448,377.6C448,377.6,448,425.6,448,425.6C448,438.4,435.2,451.2,416,451.2C416,451.2,32,451.2,32,451.2C12.8,451.2,0,441.6,0,425.6C0,425.6,0,377.6,0,377.6C0,361.6,12.8,352,32,352C32,352,32,352,32,352M512,364.8C512,368,512,371.2,512,377.6C512,377.6,512,425.6,512,425.6C512,473.6,470.4,515.2,416,515.2C416,515.2,288,515.2,288,515.2C288,604.8,358.4,675.2,448,675.2C537.6,675.2,608,604.8,608,515.2C608,444.8,566.4,390.4,512,364.8C512,364.8,512,364.8,512,364.8M0,800C0,800,896,800,896,800C896,800,896,224,896,224C896,224,508.8,224,508.8,224C512,230.4,512,240,512,249.6C512,249.6,512,288,512,288C512,288,704,288,704,288C704,358.4,761.6,416,832,416C832,416,832,608,832,608C761.6,608,704,665.6,704,736C704,736,192,736,192,736C192,665.6,134.4,608,64,608C64,608,64,512,64,512C64,512,32,512,32,512C19.2,512,9.6,508.8,0,505.6C0,505.6,0,800,0,800C0,800,0,800,0,800M1024,928C1024,928,1024,288,1024,288C1024,288,960,288,960,288C960,288,960,864,960,864C960,864,64,864,64,864C64,864,64,928,64,928C64,928,1024,928,1024,928C1024,928,1024,928,1024,928" class="icon-money"/><glyph unicode="&#x0049;" d="M584.685,220.222C584.685,220.222,995.14,630.677,995.14,630.677C1033.62,669.158,1033.62,729.016,995.14,767.496C995.14,767.496,960.935,801.7,960.935,801.7C922.455,840.181,862.597,840.181,824.117,801.7C824.117,801.7,512,489.584,512,489.584C512,489.584,199.883,801.7,199.883,801.7C161.403,840.181,101.545,840.181,63.065,801.7C63.065,801.7,28.86,767.496,28.86,767.496C-9.62,729.016,-9.62,669.158,28.86,630.677C28.86,630.677,439.315,220.222,439.315,220.222C460.693,198.844,486.347,190.293,512,194.569C537.653,190.293,563.307,198.844,584.685,220.222C584.685,220.222,584.685,220.222,584.685,220.222" class="icon-arrow2"/><glyph unicode="&#x004a;" d="M757.161,343.859C756.214,335.965,754.004,328.387,754.004,320.493C753.688,232.713,754.004,144.617,753.688,56.836C753.688,47.995,753.057,38.838,750.531,30.313C744.847,9.157,730.006,-0.316,706.325,0.316C685.8,0.947,673.802,10.736,669.065,31.891C667.171,40.101,667.171,48.627,667.171,56.836C667.171,146.827,666.855,236.818,667.486,326.809C667.486,341.018,664.013,346.07,649.173,345.438C623.596,344.175,597.704,345.122,569.286,345.122C600.862,444.586,631.806,541.523,662.434,638.461C660.224,639.408,658.014,640.671,655.803,641.618C652.014,635.619,646.962,630.251,644.752,623.936C631.806,587.308,620.439,550.049,606.545,513.421C599.283,494.475,589.494,476.162,578.127,459.111C567.391,442.691,553.498,439.534,540.236,445.533C523.817,452.796,522.87,467.005,524.764,481.529C526.027,490.686,528.553,500.159,531.711,509C559.182,591.413,587.284,673.51,615.071,755.607C628.333,794.76,653.593,813.39,695.273,813.706C745.794,814.022,796.315,814.022,846.836,813.706C880.938,813.706,900.831,800.128,912.83,767.921C924.197,736.345,934.301,704.138,945.037,672.247C961.14,623.304,977.876,574.362,993.032,525.104C997.768,510.263,999.979,494.16,1000.61,478.688C1001.557,460.058,992.4,449.322,977.56,445.533C961.14,441.113,951.036,445.217,941.248,462.584C934.301,475.53,928.302,489.108,923.565,503.001C909.041,546.26,895.147,589.834,880.938,633.409C879.675,637.198,877.465,640.355,875.886,644.144C874.307,643.829,872.413,643.513,870.834,643.197C871.465,636.882,871.465,630.251,873.044,624.252C896.726,538.681,920.724,453.111,944.721,367.541C946.616,361.226,948.194,354.595,950.72,344.491C932.722,344.491,916.619,344.807,900.831,344.491C885.359,344.175,864.835,348.28,855.678,340.386C847.784,333.439,852.52,311.652,852.52,296.812C852.204,216.925,852.52,136.723,852.204,56.836C852.204,46.101,849.994,34.733,846.205,24.629C839.89,8.525,827.259,0,809.261,0C790.632,0,777.686,8.841,771.37,25.576C767.897,35.049,766.634,46.101,766.634,56.521C766.318,143.354,766.634,230.187,766.318,317.02C766.318,325.545,765.055,334.071,764.108,342.596C762.214,343.544,759.687,343.859,757.161,343.859C757.161,343.859,757.161,343.859,757.161,343.859M210.586,342.596C209.007,335.965,205.85,329.019,205.534,322.388C204.902,285.444,205.218,248.817,205.218,211.873C205.218,159.773,205.218,107.673,205.218,55.573C205.218,20.84,187.852,3.158,154.697,2.842C124.069,2.526,105.439,21.787,105.123,55.257C104.807,177.455,105.123,299.338,105.123,421.536C105.123,490.371,105.439,559.521,104.807,628.356C104.807,635.935,99.755,643.513,96.914,651.091C95.019,643.513,91.23,636.25,91.23,628.672C90.598,583.519,91.23,538.05,90.914,492.897C90.914,483.424,89.651,473.951,87.441,464.794C83.967,450.585,73.547,444.586,59.654,443.639C46.077,442.691,35.025,447.743,30.92,460.689C26.815,473.004,23.974,486.266,23.974,499.212C23.342,578.783,23.342,658.038,23.974,737.608C23.974,752.133,26.5,767.605,32.183,780.236C42.288,802.97,61.549,814.969,87.441,814.969C170.169,814.653,252.582,814.969,335.31,814.653C372.254,814.653,398.146,789.077,398.146,752.133C398.461,670.668,398.146,588.887,397.198,507.422C397.198,494.475,394.041,481.214,390.568,468.899C386.778,455.322,377.306,448.059,362.149,449.006C347.625,449.638,340.362,458.479,336.889,470.794C334.363,479.951,332.784,489.423,332.784,498.58C332.152,541.208,332.152,583.835,331.521,626.462C331.521,634.987,329.626,643.197,328.679,651.722C326.469,651.722,324.259,651.722,322.048,652.038C320.785,643.829,318.575,635.935,318.575,627.725C318.259,437.323,318.259,246.606,318.259,56.205C318.259,23.682,292.367,-1.579,262.686,1.895C238.373,4.736,219.427,28.734,219.427,57.784C219.111,128.197,219.427,198.927,219.427,269.341C219.427,288.286,219.743,307.232,219.111,326.177C219.111,331.545,217.217,336.597,216.27,341.965C214.375,341.965,212.481,342.281,210.586,342.596C210.586,342.596,210.586,342.596,210.586,342.596M771.37,1024C820.313,1024,868.308,976.005,868.624,926.431C868.939,876.857,820.313,829.494,769.476,828.862C719.902,828.546,673.802,874.015,673.486,922.958C673.17,974.426,721.481,1024,771.37,1024C771.37,1024,771.37,1024,771.37,1024M209.007,1023.368C257.318,1023.053,303.419,975.058,303.419,925.168C303.419,876.541,255.424,831.072,204.902,831.388C154.697,831.388,110.175,875.594,110.807,924.852C111.123,975.689,159.118,1023.368,209.007,1023.368C209.007,1023.368,209.007,1023.368,209.007,1023.368" class="icon-mans"/><glyph unicode="&#x004b;" d="M636.343,475.643C636.343,475.643,994.743,168.443,994.743,168.443C980.114,153.814,965.486,146.5,943.543,146.5C943.543,146.5,65.829,146.5,65.829,146.5C43.886,146.5,29.257,153.814,14.629,168.443C14.629,168.443,380.343,475.643,380.343,475.643C380.343,475.643,504.686,365.929,504.686,365.929C504.686,365.929,636.343,475.643,636.343,475.643C636.343,475.643,636.343,475.643,636.343,475.643M512,439.071C512,439.071,21.943,855.986,21.943,855.986C36.571,870.614,51.2,877.929,73.143,877.929C73.143,877.929,950.857,877.929,950.857,877.929C972.8,877.929,987.429,870.614,1002.057,855.986C1002.057,855.986,512,439.071,512,439.071C512,439.071,512,439.071,512,439.071M1024,205.014C1024,205.014,672.914,504.9,672.914,504.9C672.914,504.9,1024,812.1,1024,812.1C1024,812.1,1024,205.014,1024,205.014C1024,205.014,1024,205.014,1024,205.014C1024,205.014,1024,205.014,1024,205.014M0,205.014C0,205.014,0,812.1,0,812.1C0,812.1,351.086,504.9,351.086,504.9C351.086,504.9,0,205.014,0,205.014C0,205.014,0,205.014,0,205.014C0,205.014,0,205.014,0,205.014" class="icon-mail"/><glyph unicode="&#x004c;" d="M989.961,717.802C970.105,717.802,955.922,703.619,955.922,683.763C955.922,683.763,955.922,672.417,955.922,672.417C955.922,672.417,955.922,541.935,955.922,541.935C955.922,522.079,941.74,507.896,921.884,507.896C902.028,507.896,887.845,522.079,887.845,541.935C887.845,541.935,887.845,672.417,887.845,672.417C887.845,672.417,887.845,683.763,887.845,683.763C887.845,703.619,870.825,717.802,850.97,717.802C831.114,717.802,816.931,703.619,816.931,683.763C816.931,683.763,816.931,612.849,816.931,612.849C816.931,592.993,802.748,578.81,782.892,578.81C763.036,578.81,748.853,592.993,748.853,612.849C748.853,612.849,748.853,672.417,748.853,672.417C748.853,672.417,748.853,672.417,748.853,672.417C748.853,672.417,748.853,683.763,748.853,683.763C748.853,703.619,734.67,717.802,714.814,717.802C697.795,717.802,680.776,703.619,680.776,683.763C680.776,683.763,680.776,672.417,680.776,672.417C680.776,672.417,680.776,541.935,680.776,541.935C680.776,522.079,666.593,507.896,646.737,507.896C626.881,507.896,612.698,522.079,612.698,541.935C612.698,541.935,612.698,672.417,612.698,672.417C612.698,672.417,612.698,683.763,612.698,683.763C612.698,703.619,598.515,717.802,578.659,717.802C558.803,717.802,544.62,703.619,544.62,683.763C544.62,683.763,544.62,612.849,544.62,612.849C544.62,595.83,530.438,581.647,510.582,581.647C490.726,581.647,476.543,595.83,476.543,615.686C476.543,615.686,476.543,672.417,476.543,672.417C476.543,672.417,476.543,683.763,476.543,683.763C476.543,703.619,462.36,717.802,442.504,717.802C422.648,717.802,408.465,703.619,408.465,683.763C408.465,683.763,408.465,672.417,408.465,672.417C408.465,672.417,408.465,544.771,408.465,544.771C408.465,524.916,394.283,510.733,374.427,510.733C354.571,510.733,340.388,524.916,340.388,544.771C340.388,544.771,340.388,672.417,340.388,672.417C340.388,672.417,340.388,683.763,340.388,683.763C340.388,703.619,326.205,717.802,306.349,717.802C286.493,717.802,272.31,703.619,272.31,683.763C272.31,683.763,272.31,672.417,272.31,672.417C272.31,672.417,272.31,615.686,272.31,615.686C272.31,595.83,258.127,581.647,238.271,581.647C218.416,581.647,207.069,595.83,207.069,615.686C207.069,615.686,207.069,672.417,207.069,672.417C207.069,672.417,207.069,683.763,207.069,683.763C207.069,700.783,192.886,717.802,173.03,717.802C153.175,717.802,138.992,700.783,138.992,683.763C138.992,683.763,138.992,672.417,138.992,672.417C138.992,672.417,138.992,544.771,138.992,544.771C138.992,524.916,124.809,510.733,104.953,510.733C85.097,510.733,68.078,524.916,68.078,544.771C68.078,544.771,68.078,672.417,68.078,672.417C68.078,672.417,68.078,683.763,68.078,683.763C68.078,700.783,53.895,717.802,34.039,717.802C14.183,717.802,0,700.783,0,683.763C0,683.763,0,644.051,0,644.051C0,644.051,0,507.896,0,507.896C0,507.896,0,334.866,0,334.866C0,317.846,14.183,306.5,28.366,306.5C28.366,306.5,995.634,306.5,995.634,306.5C1009.817,306.5,1024,317.846,1024,334.866C1024,334.866,1024,507.896,1024,507.896C1024,507.896,1024,644.051,1024,644.051C1024,644.051,1024,683.763,1024,683.763C1024,703.619,1009.817,717.802,989.961,717.802C989.961,717.802,989.961,717.802,989.961,717.802" class="icon-size"/><glyph unicode="&#x004d;" d="M896,640C896,640,640,640,640,640C640,640,640,896,640,896C640,966.4,582.4,1024,512,1024C441.6,1024,384,966.4,384,896C384,896,390.4,640,390.4,640C390.4,640,128,640,128,640C57.6,640,0,582.4,0,512C0,441.6,57.6,384,128,384C128,384,390.4,390.4,390.4,390.4C390.4,390.4,384,128,384,128C384,57.6,441.6,0,512,0C582.4,0,640,57.6,640,128C640,128,640,390.4,640,390.4C640,390.4,896,384,896,384C966.4,384,1024,441.6,1024,512C1024,582.4,966.4,640,896,640C896,640,896,640,896,640" class="icon-plus"/><glyph unicode="&#x004e;" d="M865.072,479.933C827.076,520.893,776.415,548.109,713.088,561.314C713.088,561.314,713.088,566.703,713.088,566.703C757.013,585.027,791.505,613.592,816.566,652.665C841.627,691.739,854.023,736.202,854.023,786.055C854.023,829.171,844.861,867.166,826.806,900.312C808.752,933.187,781.265,959.596,744.617,979.267C710.663,997.592,674.284,1009.718,635.749,1015.377C596.945,1021.036,540.086,1024,464.903,1024C464.903,1024,103,1024,103,1024C103,1024,103,0,103,0C103,0,512.869,0,512.869,0C584.011,0,642.486,6.467,688.566,19.402C734.646,32.337,776.954,53.895,815.488,84.076C848.095,109.406,873.964,141.204,893.097,179.739C912.229,218.274,921.931,263.006,921.931,313.937C922.2,383.461,903.067,438.973,865.072,479.933C865.072,479.933,865.072,479.933,865.072,479.933C865.072,479.933,865.072,479.933,865.072,479.933M359,836.446C359,836.446,376.785,836.446,376.785,836.446C422.596,836.446,457.088,836.177,480.263,835.368C503.438,834.56,523.379,830.787,540.356,823.242C558.141,815.427,571.345,802.762,579.968,785.516C588.592,768,592.634,751.023,592.634,734.585C592.634,712.219,588.592,692.278,581.046,675.571C573.232,658.594,558.949,645.389,538.469,635.688C519.606,627.065,501.552,622.215,483.766,621.137C465.981,620.328,435.261,619.789,391.337,619.789C391.337,619.789,359,619.789,359,619.789C359,619.789,359,836.446,359,836.446C359,836.446,359,836.446,359,836.446C359,836.446,359,836.446,359,836.446M641.139,252.227C630.36,232.825,613.383,218.004,589.939,207.764C563.261,196.177,537.122,189.979,511.522,189.171C485.922,188.362,439.573,187.823,372.743,187.823C372.743,187.823,359,187.823,359,187.823C359,187.823,359,444.362,359,444.362C359,444.362,406.427,444.362,406.427,444.362C452.238,444.362,488.886,444.093,516.103,443.284C543.32,442.476,564.878,439.242,580.507,433.314C606.107,424.152,625.509,410.678,638.175,392.623C651.109,374.838,657.577,350.046,657.577,318.248C657.307,293.996,651.918,271.629,641.139,252.227C641.139,252.227,641.139,252.227,641.139,252.227C641.139,252.227,641.139,252.227,641.139,252.227" class="icon-vk2"/><glyph unicode="&#x004f;" d="M896,1024C896,1024,128,1024,128,1024C54.4,1024,0,969.6,0,896C0,896,0,128,0,128C0,54.4,54.4,0,128,0C128,0,896,0,896,0C969.6,0,1024,54.4,1024,128C1024,128,1024,896,1024,896C1024,966.4,969.6,1024,896,1024C896,1024,896,1024,896,1024M512,713.6C624,713.6,716.8,624,716.8,515.2C716.8,406.4,624,316.8,512,316.8C400,316.8,307.2,406.4,307.2,515.2C307.2,624,400,713.6,512,713.6C512,713.6,512,713.6,512,713.6M896,160C896,137.6,886.4,128,864,128C864,128,160,128,160,128C137.6,128,128,137.6,128,160C128,160,128,608,128,608C128,608,208,592,208,592C198.4,563.2,195.2,534.4,195.2,505.6C195.2,336,339.2,198.4,512,198.4C688,198.4,828.8,336,828.8,505.6C828.8,537.6,825.6,566.4,816,592C816,592,892.8,608,892.8,608C892.8,608,892.8,160,892.8,160C892.8,160,896,160,896,160M896,736C896,716.8,883.2,704,864,704C864,704,736,704,736,704C716.8,704,704,716.8,704,736C704,736,704,864,704,864C704,883.2,716.8,896,736,896C736,896,864,896,864,896C883.2,896,896,883.2,896,864C896,864,896,736,896,736C896,736,896,736,896,736" class="icon-inst"/><glyph unicode="&#x0050;" d="M512.467,1024C315.491,1024,156,864.276,156,667.533C156,403.034,512.467,0,512.467,0C512.467,0,868.935,403.267,868.935,667.533C868.935,864.509,709.444,1024,512.467,1024C512.467,1024,512.467,1024,512.467,1024M512.467,517.122C429.346,517.122,362.057,584.411,362.057,667.533C362.057,750.654,429.346,817.943,512.467,817.943C595.589,817.943,662.878,750.654,662.878,667.533C662.878,584.411,595.589,517.122,512.467,517.122C512.467,517.122,512.467,517.122,512.467,517.122" class="icon-location"/><glyph unicode="&#x0051;" d="M927.268,990.517C945.08,997.642,955.768,988.142,951.018,969.142C951.018,969.142,917.768,850.394,917.768,850.394C913.018,831.394,918.955,804.081,930.83,788.644C930.83,788.644,1009.205,693.645,1009.205,693.645C1022.267,678.208,1016.33,665.145,996.142,665.145C996.142,665.145,872.643,660.395,872.643,660.395C853.644,659.208,828.706,644.958,818.019,628.333C818.019,628.333,752.707,523.834,752.707,523.834C742.02,507.209,727.77,508.397,721.832,527.396C721.832,527.396,679.083,642.583,679.083,642.583C671.958,660.395,651.77,679.395,632.771,685.333C632.771,685.333,514.022,715.02,514.022,715.02C495.022,719.77,492.647,734.02,506.897,745.894C506.897,745.894,603.083,821.894,603.083,821.894C618.521,833.769,630.396,859.893,629.208,880.081C629.208,880.081,620.896,1003.58,620.896,1003.58C619.708,1022.579,631.583,1029.704,648.208,1019.017C648.208,1019.017,750.332,951.33,750.332,951.33C766.957,940.643,794.269,937.08,813.269,944.205C813.269,944.205,927.268,990.517,927.268,990.517C927.268,990.517,927.268,990.517,927.268,990.517M647.02,261.399C647.02,261.399,683.833,264.961,730.145,302.961C770.519,336.211,777.644,393.21,777.644,393.21C777.644,393.21,782.394,331.461,829.894,294.649C870.268,263.774,905.893,260.211,905.893,260.211C905.893,260.211,860.768,263.774,820.394,226.962C775.269,186.587,775.269,134.338,775.269,134.338C775.269,134.338,775.269,243.587,647.02,261.399C647.02,261.399,647.02,261.399,647.02,261.399M300.274,893.143C300.274,893.143,321.648,895.518,348.961,916.893C372.71,935.893,376.273,969.142,376.273,969.142C376.273,969.142,379.835,933.518,405.96,912.143C429.71,894.331,449.897,891.956,449.897,891.956C449.897,891.956,423.772,894.331,400.023,872.956C373.898,849.206,373.898,819.519,373.898,819.519C373.898,819.519,376.273,881.268,300.274,893.143C300.274,893.143,300.274,893.143,300.274,893.143M59.213,678.208C59.213,678.208,88.901,680.583,125.713,711.457C157.775,737.582,163.712,783.894,163.712,783.894C163.712,783.894,167.275,734.02,205.274,705.52C237.337,680.583,265.836,678.208,265.836,678.208C265.836,678.208,230.212,680.583,198.15,650.895C162.525,618.833,162.525,577.271,162.525,577.271C162.525,577.271,162.525,663.958,59.213,678.208C59.213,678.208,59.213,678.208,59.213,678.208M688.583,618.833C688.583,618.833,593.583,520.272,593.583,520.272C593.583,520.272,110.275,17.964,110.275,17.964C87.713,-5.786,49.713,-5.786,25.964,16.776C25.964,16.776,25.964,16.776,25.964,16.776C2.214,39.338,2.214,77.338,24.776,101.088C24.776,101.088,597.146,696.02,597.146,696.02M599.521,526.209C599.521,526.209,599.521,526.209,599.521,526.209C599.521,526.209,517.584,611.708,517.584,611.708C517.584,611.708,517.584,611.708,517.584,611.708C517.584,611.708,599.521,526.209,599.521,526.209" class="icon-wand"/><glyph unicode="&#x0052;" d="M878.053,869.807C679.668,1072.458,355.426,1076.724,154.908,878.339C-45.611,679.954,-52.01,355.712,146.375,155.193C344.76,-47.458,669.002,-51.724,869.521,146.661C1072.172,345.046,1074.305,669.288,878.053,869.807C878.053,869.807,878.053,869.807,878.053,869.807M807.659,210.656C639.138,46.402,370.358,48.535,206.104,217.055C41.849,385.576,43.983,654.356,212.503,818.61C381.024,982.865,649.804,980.732,814.058,812.211C978.313,643.69,976.179,374.91,807.659,210.656C807.659,210.656,807.659,210.656,807.659,210.656M675.402,650.09C675.402,650.09,651.937,673.555,651.937,673.555C634.872,690.62,615.673,675.688,609.274,671.421C609.274,671.421,511.148,575.429,511.148,575.429C511.148,575.429,413.022,675.688,413.022,675.688C406.622,682.087,389.557,692.753,372.491,675.688C372.491,675.688,349.026,652.223,349.026,652.223C331.961,635.157,346.893,615.959,351.16,609.559C351.16,609.559,447.152,511.433,447.152,511.433C447.152,511.433,346.893,413.307,346.893,413.307C327.695,394.109,340.494,379.177,344.76,374.91C344.76,374.91,372.491,347.179,372.491,347.179C376.758,342.913,391.69,330.114,410.888,349.312C410.888,349.312,511.148,447.438,511.148,447.438C511.148,447.438,609.274,347.179,609.274,347.179C628.472,327.98,643.404,340.78,647.671,345.046C647.671,345.046,675.402,372.777,675.402,372.777C679.668,377.043,692.467,391.976,673.269,411.174C673.269,411.174,575.143,511.433,575.143,511.433C575.143,511.433,675.402,609.559,675.402,609.559C681.801,618.092,692.467,633.024,675.402,650.09C675.402,650.09,675.402,650.09,675.402,650.09" class="icon-delete"/><glyph unicode="&#x0053;" d="M342.99,175C154.097,175,0,326.115,0,512.025C0,697.936,154.097,849.05,342.99,849.05C425.507,849.05,506.035,819.225,567.674,766.534C567.674,766.534,480.186,668.111,480.186,668.111C442.408,700.918,392.699,718.814,341.996,718.814C225.678,718.814,132.225,626.355,132.225,512.025C132.225,398.689,226.672,305.237,341.996,305.237C440.419,305.237,504.047,351.963,524.924,436.468C524.924,436.468,343.984,436.468,343.984,436.468C343.984,436.468,343.984,566.705,343.984,566.705C343.984,566.705,665.103,566.705,665.103,566.705C665.103,566.705,665.103,501.089,665.103,501.089C666.097,306.231,536.854,175,342.99,175C342.99,175,342.99,175,342.99,175M1024,566.705C1024,566.705,924.583,566.705,924.583,566.705C924.583,566.705,924.583,666.122,924.583,666.122C924.583,666.122,845.049,666.122,845.049,666.122C845.049,666.122,845.049,566.705,845.049,566.705C845.049,566.705,745.631,566.705,745.631,566.705C745.631,566.705,745.631,487.171,745.631,487.171C745.631,487.171,845.049,487.171,845.049,487.171C845.049,487.171,845.049,387.753,845.049,387.753C845.049,387.753,924.583,387.753,924.583,387.753C924.583,387.753,924.583,487.171,924.583,487.171C924.583,487.171,1024,487.171,1024,487.171C1024,487.171,1024,566.705,1024,566.705" class="icon-google"/><glyph unicode="&#x0054;" d="M737.28,870.7C839.68,870.7,921.6,788.78,921.6,686.38C921.6,583.98,721.92,358.7,512,184.62C302.08,363.82,102.4,589.1,102.4,686.38C102.4,788.78,184.32,870.7,286.72,870.7C409.6,870.7,512,717.1,512,717.1C512,717.1,609.28,870.7,737.28,870.7M737.28,973.1C645.12,973.1,563.2,927.02,512,855.34C460.8,927.02,378.88,973.1,286.72,973.1C128,973.1,0,845.1,0,686.38C0,461.1,512,51.5,512,51.5C512,51.5,1024,461.1,1024,686.38C1024,845.1,896,973.1,737.28,973.1C737.28,973.1,737.28,973.1,737.28,973.1C737.28,973.1,737.28,973.1,737.28,973.1" class="icon-heart"/><glyph unicode="&#x0055;" d="M737.28,870.7C839.68,870.7,921.6,788.78,921.6,686.38C921.6,583.98,721.92,358.7,512,184.62C302.08,363.82,102.4,589.1,102.4,686.38C102.4,788.78,184.32,870.7,286.72,870.7C409.6,870.7,512,717.1,512,717.1C512,717.1,609.28,870.7,737.28,870.7M737.28,973.1C645.12,973.1,563.2,927.02,512,855.34C460.8,927.02,378.88,973.1,286.72,973.1C128,973.1,0,845.1,0,686.38C0,461.1,512,51.5,512,51.5C512,51.5,1024,461.1,1024,686.38C1024,845.1,896,973.1,737.28,973.1C737.28,973.1,737.28,973.1,737.28,973.1C737.28,973.1,737.28,973.1,737.28,973.1" class="icon-heart-border"/><glyph unicode="&#x0056;" d="M512,810.667C738.133,810.667,880,597.333,928,512C880,426.667,737.067,213.333,512,213.333C286.933,213.333,144,425.6,96,510.933C144,596.267,286.933,810.667,512,810.667M512,896C170.667,896,0,509.867,0,509.867C0,509.867,170.667,128,512,128C853.333,128,1024,512,1024,512C1024,512,853.333,896,512,896C512,896,512,896,512,896C512,896,512,896,512,896M512,597.333C558.933,597.333,597.333,558.933,597.333,512C597.333,465.067,558.933,426.667,512,426.667C465.067,426.667,426.667,465.067,426.667,512C426.667,558.933,465.067,597.333,512,597.333M512,682.667C418.133,682.667,341.333,605.867,341.333,512C341.333,418.133,418.133,341.333,512,341.333C605.867,341.333,682.667,418.133,682.667,512C682.667,605.867,605.867,682.667,512,682.667C512,682.667,512,682.667,512,682.667C512,682.667,512,682.667,512,682.667" class="icon-eye"/><glyph unicode="&#x0057;" d="M204.8,580.267C284.444,420.978,420.978,290.133,580.267,204.8C580.267,204.8,705.422,329.956,705.422,329.956C722.489,347.022,745.244,352.711,762.311,341.333C824.889,318.578,893.156,307.2,967.111,307.2C1001.244,307.2,1024,284.444,1024,250.311C1024,250.311,1024,56.889,1024,56.889C1024,22.756,1001.244,0,967.111,0C432.356,0,0,432.356,0,967.111C0,1001.244,22.756,1024,56.889,1024C56.889,1024,256,1024,256,1024C290.133,1024,312.889,1001.244,312.889,967.111C312.889,898.844,324.267,830.578,347.022,762.311C352.711,745.244,347.022,722.489,335.644,705.422C335.644,705.422,204.8,580.267,204.8,580.267C204.8,580.267,204.8,580.267,204.8,580.267C204.8,580.267,204.8,580.267,204.8,580.267" class="icon-phone"/><glyph unicode="&#x0058;" d="M546.273,205.5C580.35,205.5,580.35,253.208,580.35,273.654C580.35,307.731,614.427,341.808,648.504,341.808C682.581,341.808,740.512,283.877,784.812,239.577C818.889,205.5,818.889,205.5,852.966,205.5C887.043,205.5,955.197,205.5,955.197,205.5C955.197,205.5,1023.351,208.908,1023.351,273.654C1023.351,294.1,999.497,331.585,921.12,409.962C852.966,478.116,818.889,444.039,921.12,580.347C982.458,665.539,1030.166,740.509,1023.351,760.955C1016.535,781.401,842.743,815.478,818.889,784.809C750.735,682.578,737.104,658.724,716.658,614.424C682.581,546.27,679.173,512.193,648.504,512.193C617.834,512.193,614.427,576.939,614.427,614.424C614.427,726.878,631.465,805.255,580.35,818.886C580.35,818.886,512.196,818.886,478.119,818.886C423.596,818.886,375.888,784.809,375.888,784.809C375.888,784.809,334.995,750.732,341.811,750.732C352.034,750.732,409.965,764.363,409.965,716.655C409.965,682.578,409.965,648.501,409.965,648.501C409.965,648.501,409.965,512.193,375.888,512.193C341.811,512.193,273.657,648.501,205.503,750.732C178.241,791.624,171.426,784.809,137.349,784.809C99.864,784.809,69.195,784.809,35.118,784.809C1.041,784.809,-2.367,764.363,1.041,750.732C69.195,580.347,116.903,474.708,246.395,338.4C365.665,215.723,444.042,208.908,512.196,205.5C529.234,205.5,512.196,205.5,546.273,205.5C546.273,205.5,546.273,205.5,546.273,205.5" class="icon-vk"/><glyph unicode="&#x0059;" d="M1014.4,731.6C1014.4,731.6,1004.8,808.4,972.8,840.4C934.4,885.2,889.6,885.2,870.4,885.2C726.4,894.8,512,894.8,512,894.8C512,894.8,512,894.8,512,894.8C512,894.8,297.6,894.8,153.6,885.2C134.4,882,89.6,882,51.2,840.4C19.2,808.4,9.6,731.6,9.6,731.6C9.6,731.6,0,642,0,555.6C0,555.6,0,472.4,0,472.4C0,382.8,9.6,296.4,9.6,296.4C9.6,296.4,19.2,219.6,51.2,187.6C89.6,142.8,140.8,146,163.2,139.6C246.4,130,512,130,512,130C512,130,726.4,130,870.4,142.8C889.6,146,934.4,146,972.8,187.6C1004.8,219.6,1014.4,296.4,1014.4,296.4C1014.4,296.4,1024,386,1024,472.4C1024,472.4,1024,555.6,1024,555.6C1024,642,1014.4,731.6,1014.4,731.6C1014.4,731.6,1014.4,731.6,1014.4,731.6M384,322C384,322,384,706,384,706C384,706,704,514,704,514C704,514,384,322,384,322C384,322,384,322,384,322" class="icon-youtube"/><glyph unicode="&#x005a;" d="M134,0C389.299,0,636.181,0,890.077,0C867.633,178.148,847.995,352.088,825.551,523.222C825.551,523.222,801.704,721.008,801.704,721.008C801.704,721.008,616.542,721.008,616.542,721.008C550.614,721.008,483.282,721.008,417.353,721.008C417.353,721.008,375.271,721.008,375.271,721.008C324.773,721.008,274.274,721.008,223.775,721.008C223.775,721.008,190.11,458.696,190.11,458.696C188.707,447.474,187.304,436.252,185.901,425.03C185.901,425.03,134,0,134,0C134,0,134,0,134,0M316.356,750.466C316.356,757.479,314.953,764.493,314.953,770.104C314.953,876.712,401.923,963.682,508.532,963.682C615.14,963.682,703.512,878.115,703.512,771.507C703.512,764.493,703.512,757.479,702.11,751.868C702.11,751.868,761.025,751.868,761.025,751.868C761.025,758.882,762.427,764.493,762.427,771.507C762.427,910.378,648.805,1024,508.532,1024C368.258,1024,256.038,910.378,256.038,770.104C256.038,763.09,256.038,756.077,257.441,750.466C257.441,750.466,316.356,750.466,316.356,750.466C316.356,750.466,316.356,750.466,316.356,750.466" class="icon-lock"/><glyph unicode="&#x0061;" d="M1024,828.017C985.72,812.067,947.439,799.307,902.779,796.117C947.439,821.637,979.34,863.107,995.29,910.958C953.819,885.438,909.159,869.488,861.308,859.917C823.028,901.388,768.798,926.908,708.187,926.908C593.346,926.908,497.645,834.397,497.645,716.366C497.645,700.416,500.835,684.466,504.025,668.516C328.573,678.086,175.452,761.026,73.371,888.628C54.231,856.727,44.66,821.637,44.66,783.357C44.66,709.986,82.941,646.185,137.171,607.905C102.081,607.905,70.181,617.475,41.47,633.425C41.47,633.425,41.47,630.235,41.47,630.235C41.47,528.154,114.841,445.213,210.542,426.073C191.402,422.883,175.452,419.693,156.312,419.693C143.551,419.693,130.791,419.693,118.031,422.883C143.551,339.942,223.302,279.332,312.623,276.142C242.442,218.721,149.931,186.821,51.04,186.821C35.09,186.821,15.95,186.821,0,190.011C92.511,129.4,204.162,97.5,322.193,97.5C708.187,97.5,918.729,416.503,918.729,694.036C918.729,703.606,918.729,713.176,918.729,722.746C960.199,748.266,995.29,786.547,1024,828.017C1024,828.017,1024,828.017,1024,828.017" class="icon-twitter"/></font>
</defs>
</svg>
