<svg id="Layer_1" xmlns="http://www.w3.org/2000/svg" viewBox="-124 76.4 48 48"><style>.st0{fill:#231f20}</style><path class="st0" d="M-82.8 83.7c-9.3-9.5-24.5-9.7-33.9-.4s-9.7 24.5-.4 33.9c9.3 9.5 24.5 9.7 33.9.4 9.5-9.3 9.6-24.5.4-33.9zm-3.3 30.9c-7.9 7.7-20.5 7.6-28.2-.3-7.7-7.9-7.6-20.5.3-28.2s20.5-7.6 28.2.3c7.7 7.9 7.6 20.5-.3 28.2z"/><path class="st0" d="M-92.3 94l-1.1-1.1c-.8-.8-1.7-.1-2 .1l-4.6 4.5-4.6-4.7c-.3-.3-1.1-.8-1.9 0l-1.1 1.1c-.8.8-.1 1.7.1 2l4.5 4.6-4.7 4.6c-.9.9-.3 1.6-.1 1.8l1.3 1.3c.2.2.9.8 1.8-.1l4.7-4.6 4.6 4.7c.9.9 1.6.3 1.8.1l1.3-1.3c.2-.2.8-.9-.1-1.8l-4.6-4.7 4.7-4.6c.3-.4.8-1.1 0-1.9z"/></svg>