<svg id="Layer_1" xmlns="http://www.w3.org/2000/svg" viewBox="0 0 291.3 30.1"><style>.st0{fill:#272a27}</style><path class="st0" d="M75.1 8.1c.4-.2.8-.4 1.3-.5 1.1-.2 2.2-.2 3.3.1.6.2 1.2.4 1.8.9l.3.2 2-2-.4-.3c-.9-.6-1.8-1.1-2.7-1.4-1.7-.5-3.4-.5-5.1-.1-.8.2-1.5.6-2.2 1-.6.5-1.2 1.1-1.6 1.8-.4.7-.6 1.6-.6 2.6 0 1.3.3 2.3.8 3 .5.7 1.2 1.3 1.9 1.7.7.4 1.6.7 2.4.9.8.2 1.6.4 2.3.6.7.2 1.2.5 1.7.9.4.3.6.8.6 1.4 0 .6-.1 1.1-.4 1.5-.2.5-.5.8-.9 1.1-.4.3-.8.6-1.2.7-1.1.4-2.1.3-3.2 0-.6-.2-1.2-.5-1.9-.9H73l-1.9 2 .4.3c.9.6 1.8 1.1 2.6 1.4.9.3 1.8.4 2.7.4 1 0 1.9-.1 2.7-.4.8-.3 1.6-.7 2.2-1.2.6-.5 1.1-1.2 1.4-2 .3-.8.5-1.7.5-2.7 0-1.2-.3-2.2-.8-2.9-.5-.7-1.2-1.2-1.9-1.6-.7-.4-1.6-.7-2.4-.9-.8-.2-1.6-.4-2.3-.7-.7-.2-1.2-.6-1.7-.9-.4-.3-.6-.8-.6-1.5 0-.6.1-1 .3-1.4.2-.6.5-.8.9-1.1zM88.7 22.6h13.6v2.7H88.7zM88.7 13.7h11.8v2.7H88.7zM88.7 4.7h13.6v2.7H88.7zM122.7 19.2l-14.4-15v22l2.7-3.7V10.9L125.5 26V3.9l-2.8 3.7zM132.7 25.4h2.8V7.5h7V4.7h-9.8zM147.1 13.7h11.8v2.7h-11.8zM147.1 22.6h13.6v2.7h-13.6zM147.1 4.7h13.6v2.7h-13.6zM181.2 19.2l-14.5-15v22l2.8-3.7V10.9L183.9 26V3.9l-2.7 3.7zM203.9 7.8c-.9-.9-2-1.6-3.2-2.2-1.2-.5-2.5-.8-3.9-.8H190v2.7h7c1 0 2 .2 2.8.7.9.4 1.7 1 2.3 1.7.7.7 1.2 1.5 1.5 2.4.4.9.6 1.8.6 2.8 0 1-.2 2-.6 2.9-.4.9-.9 1.7-1.6 2.4-.7.7-1.5 1.2-2.3 1.6-.9.4-1.8.6-2.7.6h-7v2.7H196.8c1.4 0 2.8-.3 4-.9 1.2-.6 2.3-1.3 3.2-2.3.9-.9 1.7-2 2.2-3.2.5-1.2.8-2.5.8-3.9s-.3-2.8-.8-4c-.6-1.2-1.4-2.3-2.3-3.2zM227.8 7.8c-.9-.9-2-1.7-3.3-2.2-2.5-1.1-5.6-1.1-8 0-1.2.5-2.4 1.3-3.3 2.2-.9.9-1.7 2-2.2 3.3-.5 1.2-.8 2.6-.8 4s.3 2.7.8 4c.5 1.2 1.3 2.3 2.2 3.3.9.9 2 1.7 3.3 2.2 1.2.5 2.6.8 4 .8s2.8-.3 4-.8c1.2-.5 2.3-1.3 3.3-2.2.9-.9 1.7-2 2.2-3.3.5-1.3.8-2.6.8-4s-.3-2.8-.8-4c-.5-1.3-1.2-2.4-2.2-3.3zm-.3 10.1c-.4.9-1 1.7-1.6 2.4-.7.7-1.5 1.2-2.4 1.7-1.8.8-4 .8-5.8 0-.9-.4-1.7-1-2.4-1.7s-1.2-1.5-1.6-2.4c-.4-.9-.6-1.9-.6-2.9s.2-2 .6-2.9c.4-.9 1-1.7 1.6-2.4.7-.7 1.5-1.2 2.4-1.6.9-.4 1.9-.6 2.9-.6s2 .2 2.9.6c.9.4 1.7 1 2.4 1.6.7.7 1.2 1.5 1.6 2.4.4.9.6 1.9.6 2.9 0 1.1-.2 2-.6 2.9zM243.4 4.7h-2.8v20.7h13.6v-2.8h-10.8zM258.4 4.7h3.1v8.5h-3.1zM277.1 12.9c.4-.6.7-1.2.9-1.6.2-.5.3-1.1.3-1.6 0-.7-.1-1.3-.4-1.9-.2-.6-.6-1.1-1.1-1.6-.4-.4-1-.8-1.6-1-1.2-.5-2.7-.5-3.9 0-.6.3-1.1.6-1.6 1-.4.4-.8 1-1.1 1.6-.2.6-.4 1.2-.4 1.9 0 .6.1 1.1.3 1.7.2.5.5 1.1 1 1.7-1 .8-1.7 1.7-2.1 2.5-.5 1-.8 2-.8 3 0 .9.2 1.8.5 2.6s.8 1.5 1.4 2.2c.6.6 1.3 1.1 2.1 1.5.8.4 1.7.5 2.6.5.9 0 1.8-.2 2.6-.5.8-.4 1.6-.8 2.2-1.5.6-.6 1.1-1.3 1.5-2.2.4-.8.5-1.7.5-2.6 0-1.1-.3-2.1-.8-3.1-.3-.9-1.1-1.8-2.1-2.6zm-5.4-4.8c.4-.4.9-.6 1.6-.6.6 0 1.1.2 1.6.6.4.4.6.9.6 1.6 0 .3-.1.5-.2.8-.1.3-.3.5-.5.7-.2.2-.4.4-.7.5-.5.2-1.1.2-1.6 0-.3-.1-.5-.2-.7-.4-.2-.2-.4-.4-.5-.7-.1-.3-.2-.5-.2-.8 0-.8.2-1.3.6-1.7zm5.4 12c-.2.5-.5.9-.9 1.3s-.8.7-1.3.9c-1 .4-2.1.4-3.1 0-.5-.2-.9-.5-1.2-.9-.3-.4-.6-.8-.8-1.3-.2-.5-.3-1-.3-1.6 0-.5.1-1.1.3-1.6.2-.5.5-.9.8-1.3.3-.4.8-.7 1.2-.9.5-.2 1-.3 1.5-.3s1.1.1 1.6.3c.5.2.9.5 1.3.9s.7.8.9 1.3c.2.5.3 1 .3 1.6 0 .6-.1 1.2-.3 1.6zM291.3 8.5c0-.2 0-1.7-1.1-2.8-.7-.7-1.6-1-2.7-1s-2 .4-2.7 1c-1.1 1.1-1.1 2.7-1.1 2.8v2.7c0 .2 0 1.7 1.1 2.8.7.7 1.6 1 2.7 1s2-.4 2.7-1c1.1-1.1 1.1-2.6 1.1-2.8V8.5zm-2.8 3.8c-.2.2-.5.3-.9.3s-.7-.1-.9-.3c-.3-.4-.4-1-.4-1V8.5c0-.2.1-.7.4-1 .2-.2.5-.3.9-.3s.7.1.9.3c.3.4.4 1 .4 1v2.8c-.1.1-.2.7-.4 1z"/><path transform="scale(-1) rotate(-45.474 -30.77 66.018)" class="st0" d="M14 11.5h27.4v2.8H14z"/><path transform="rotate(-45.474 32.153 17.174)" class="st0" d="M18.5 15.8h27.4v2.8H18.5z"/><path class="st0" d="M53.5 11.1L42.3 0h-3.9l13.1 13.1zM57.8 6.7L51.1 0h-3.9l8.6 8.6zM23.7 11.1L12.6 0H8.7l13.1 13.1zM28.1 6.7L21.4 0h-3.9l8.6 8.6zM51.3 30.1L38.2 17l-1.9 2 11.1 11.1zM42.5 30.1l-8.6-8.6-1.9 1.9 6.6 6.7zM21.1 30.1L8 17l-1.9 2 11.1 11.1zM1.8 23.4l6.6 6.7h3.9l-8.6-8.6zM48.8 23.6l11-11.3V8.4l-13 13.2zM51.3 25.9l2 1.9 6.5-6.6v-4zM11 6.1L0 17.4v3.9L13 8.1zM8.5 3.8L6.6 1.9 0 8.5v4z"/></svg>