<svg xmlns="http://www.w3.org/2000/svg" viewBox="0 0 309.5 324.1"><path d="M232.4 215.4c-.3 2.5-1 4.9-1 7.4-.1 27.8 0 55.7-.1 83.5 0 2.8-.2 5.7-1 8.4-1.8 6.7-6.5 9.7-14 9.5-6.5-.2-10.3-3.3-11.8-10-.6-2.6-.6-5.3-.6-7.9 0-28.5-.1-57 .1-85.5 0-4.5-1.1-6.1-5.8-5.9-8.1.4-16.3.1-25.3.1 10-31.5 19.8-62.2 29.5-92.9-.7-.3-1.4-.7-2.1-1-1.2 1.9-2.8 3.6-3.5 5.6-4.1 11.6-7.7 23.4-12.1 35-2.3 6-5.4 11.8-9 17.2-3.4 5.2-7.8 6.2-12 4.3-5.2-2.3-5.5-6.8-4.9-11.4.4-2.9 1.2-5.9 2.2-8.7 8.7-26.1 17.6-52.1 26.4-78.1 4.2-12.4 12.2-18.3 25.4-18.4 16-.1 32-.1 48 0 10.8 0 17.1 4.3 20.9 14.5 3.6 10 6.8 20.2 10.2 30.3 5.1 15.5 10.4 31 15.2 46.6 1.5 4.7 2.2 9.8 2.4 14.7.3 5.9-2.6 9.3-7.3 10.5-5.2 1.4-8.4.1-11.5-5.4-2.2-4.1-4.1-8.4-5.6-12.8-4.6-13.7-9-27.5-13.5-41.3-.4-1.2-1.1-2.2-1.6-3.4-.5.1-1.1.2-1.6.3.2 2 .2 4.1.7 6 7.5 27.1 15.1 54.2 22.7 81.3.6 2 1.1 4.1 1.9 7.3-5.7 0-10.8-.1-15.8 0-4.9.1-11.4-1.2-14.3 1.3-2.5 2.2-1 9.1-1 13.8-.1 25.3 0 50.7-.1 76 0 3.4-.7 7-1.9 10.2-2 5.1-6 7.8-11.7 7.8-5.9 0-10-2.8-12-8.1-1.1-3-1.5-6.5-1.5-9.8-.1-27.5 0-55-.1-82.5 0-2.7-.4-5.4-.7-8.1-.6-.3-1.4-.4-2.2-.4zM59.3 215.8c-.5 2.1-1.5 4.3-1.6 6.4-.2 11.7-.1 23.3-.1 35v49.5c0 11-5.5 16.6-16 16.7-9.7.1-15.6-6-15.7-16.6-.1-38.7 0-77.3 0-116 0-21.8.1-43.7-.1-65.5 0-2.4-1.6-4.8-2.5-7.2-.6 2.4-1.8 4.7-1.8 7.1-.2 14.3 0 28.7-.1 43 0 3-.4 6-1.1 8.9-1.1 4.5-4.4 6.4-8.8 6.7-4.3.3-7.8-1.3-9.1-5.4-1.3-3.9-2.2-8.1-2.2-12.2C0 141 0 115.9.2 90.7c0-4.6.8-9.5 2.6-13.5 3.2-7.2 9.3-11 17.5-11 26.2.1 52.3 0 78.5.1 11.7 0 19.9 8.1 19.9 19.8.1 25.8 0 51.7-.3 77.5 0 4.1-1 8.3-2.1 12.2-1.2 4.3-4.2 6.6-9 6.3-4.6-.2-6.9-3-8-6.9-.8-2.9-1.3-5.9-1.3-8.8-.2-13.5-.2-27-.4-40.5 0-2.7-.6-5.3-.9-8-.7 0-1.4 0-2.1-.1-.4 2.6-1.1 5.1-1.1 7.7-.1 60.3-.1 120.7-.1 181 0 10.3-8.2 18.3-17.6 17.2-7.7-.9-13.7-8.5-13.7-17.7-.1-22.3 0-44.7 0-67 0-6 .1-12-.1-18 0-1.7-.6-3.3-.9-5-.6 0-1.2-.1-1.8-.2zM236.9 0c15.5 0 30.7 15.2 30.8 30.9.1 15.7-15.3 30.7-31.4 30.9-15.7.1-30.3-14.3-30.4-29.8-.1-16.3 15.2-32 31-32zM58.8.2c15.3.1 29.9 15.3 29.9 31.1 0 15.4-15.2 29.8-31.2 29.7-15.9 0-30-14-29.8-29.6C27.8 15.3 43 .2 58.8.2z"/></svg>