<svg xmlns="http://www.w3.org/2000/svg" viewBox="-289 384 32 26"><path d="M-288 406h12c.6 0 1-.3 1-.8v-1.5c0-.4-.4-.8-1-.8h-12c-.6 0-1 .3-1 .8v1.5c0 .5.4.8 1 .8zm0 4h12c.6 0 1-.3 1-.8v-1.5c0-.4-.4-.8-1-.8h-12c-.6 0-1 .3-1 .8v1.5c0 .5.4.8 1 .8zm0-8h12c.6 0 1-.3 1-.8v-1.5c0-.4-.4-.8-1-.8h-12c-.6 0-1 .3-1 .8v1.5c0 .5.4.8 1 .8zm15-.4v-1.9c0-1.5-1.3-2.8-3-2.8h-4c0-2.8 2.2-5 5-5s5 2.2 5 5c0 2.2-1.3 3.9-3 4.7zm-16-13.6h28v18h-12.1c.1-.2.1-.5.1-.8V404h6c0-2.2 1.8-4 4-4v-6c-2.2 0-4-1.8-4-4h-16c0 2.2-1.8 4-4 4v3h-1c-.4 0-.7.1-1 .2V388zm32-4v20h-2v-18h-28v-2h30z"/></svg>