<svg id="Layer_1" xmlns="http://www.w3.org/2000/svg" viewBox="0 0 36.1 14.5"><style>.st0{fill:#333}</style><path class="st0" d="M34.9 0c-.7 0-1.2.5-1.2 1.2v5c0 .7-.5 1.2-1.2 1.2s-1.2-.5-1.2-1.2v-5C31.3.5 30.7 0 30 0s-1.2.5-1.2 1.2v2.5c0 .7-.5 1.2-1.2 1.2s-1.2-.5-1.2-1.2V1.2c0-.7-.5-1.2-1.2-1.2-.6 0-1.2.5-1.2 1.2v5c0 .7-.5 1.2-1.2 1.2s-1.2-.5-1.2-1.2v-5c0-.7-.5-1.2-1.2-1.2s-1.2.5-1.2 1.2v2.5c0 .6-.5 1.1-1.2 1.1s-1.2-.5-1.2-1.2V1.2c0-.7-.5-1.2-1.2-1.2s-1.2.5-1.2 1.2v4.9c0 .7-.5 1.2-1.2 1.2S12 6.8 12 6.1V1.2c0-.7-.5-1.2-1.2-1.2S9.6.5 9.6 1.2v2.4c0 .7-.5 1.2-1.2 1.2s-1.1-.5-1.1-1.2V1.2C7.3.6 6.8 0 6.1 0S4.9.6 4.9 1.2v4.9c0 .7-.5 1.2-1.2 1.2s-1.3-.5-1.3-1.2V1.2C2.4.6 1.9 0 1.2 0S0 .6 0 1.2V13.5c0 .6.5 1 1 1h34.1c.5 0 1-.4 1-1V1.2c0-.7-.5-1.2-1.2-1.2z"/></svg>