<svg id="Layer_1" xmlns="http://www.w3.org/2000/svg" viewBox="0 0 86.9 88.3"><style>.st0,.st1,.st2{fill:none;stroke:#000;stroke-width:2;stroke-miterlimit:10}.st1,.st2{stroke-linecap:square;stroke-linejoin:bevel}.st2{stroke-linecap:round;stroke-linejoin:round}</style><path class="st0" d="M78.4 3.9c1.5-.6 2.4.2 2 1.8l-2.8 10c-.4 1.6.1 3.9 1.1 5.2l6.6 8c1.1 1.3.6 2.4-1.1 2.4l-10.4.4c-1.6.1-3.7 1.3-4.6 2.7l-5.5 8.8c-.9 1.4-2.1 1.3-2.6-.3l-3.6-9.7c-.6-1.5-2.3-3.1-3.9-3.6l-10-2.5c-1.6-.4-1.8-1.6-.6-2.6l8.1-6.4c1.3-1 2.3-3.2 2.2-4.9l-.7-10.4c-.1-1.6.9-2.2 2.3-1.3l8.6 5.7c1.4.9 3.7 1.2 5.3.6l9.6-3.9z"/><path class="st1" d="M54.8 65.3s3.1-.3 7-3.5c3.4-2.8 4-7.6 4-7.6s.4 5.2 4.4 8.3c3.4 2.6 6.4 2.9 6.4 2.9s-3.8-.3-7.2 2.8c-3.8 3.4-3.8 7.8-3.8 7.8s0-9.2-10.8-10.7zM25.6 12.1s1.8-.2 4.1-2c2-1.6 2.3-4.4 2.3-4.4s.3 3 2.5 4.8c2 1.5 3.7 1.7 3.7 1.7S36 12 34 13.8c-2.2 2-2.2 4.5-2.2 4.5s.2-5.2-6.2-6.2zM5.3 30.2s2.5-.2 5.6-2.8c2.7-2.2 3.2-6.1 3.2-6.1s.3 4.2 3.5 6.6c2.7 2.1 5.1 2.3 5.1 2.3s-3-.2-5.7 2.3c-3 2.7-3 6.2-3 6.2s0-7.3-8.7-8.5z"/><path class="st2" d="M58.3 35.2l-8 8.3L9.6 85.8c-1.9 2-5.1 2-7.1.1s-2-5.1-.1-7.1l48.2-50.1"/><path class="st1" d="M50.8 43l-6.9-7.2"/></svg>