<?xml version="1.0" encoding="utf-8"?>
<!-- Generator: Adobe Illustrator 19.1.1, SVG Export Plug-In . SVG Version: 6.00 Build 0)  -->
<svg version="1.1" id="eye" xmlns="http://www.w3.org/2000/svg" xmlns:xlink="http://www.w3.org/1999/xlink" x="0px" y="0px"
	 viewBox="-2077 673.3 96 72" style="enable-background:new -2077 673.3 96 72;" xml:space="preserve">
<path d="M-2029,681.3c21.2,0,34.5,20,39,28c-4.5,8-17.9,28-39,28c-21.1,0-34.5-19.9-39-27.9C-2063.5,701.4-2050.1,681.3-2029,681.3
	 M-2029,673.3c-32,0-48,36.2-48,36.2s16,35.8,48,35.8s48-36,48-36S-1997,673.3-2029,673.3L-2029,673.3z"/>
<path d="M-2029,701.3c4.4,0,8,3.6,8,8s-3.6,8-8,8s-8-3.6-8-8S-2033.4,701.3-2029,701.3 M-2029,693.3c-8.8,0-16,7.2-16,16
	c0,8.8,7.2,16,16,16c8.8,0,16-7.2,16-16C-2013,700.5-2020.2,693.3-2029,693.3L-2029,693.3z"/>
</svg>
