<?xml version="1.0" encoding="utf-8"?>
<!-- Generator: Adobe Illustrator 19.1.1, SVG Export Plug-In . SVG Version: 6.00 Build 0)  -->
<svg version="1.1" id="Isolation_Mode" xmlns="http://www.w3.org/2000/svg" xmlns:xlink="http://www.w3.org/1999/xlink" x="0px"
	 y="0px" viewBox="-2046.1 675.4 103 67.7" style="enable-background:new -2046.1 675.4 103 67.7;" xml:space="preserve">
<style type="text/css">
	.st0{fill:#FFFFFF;}
</style>
<g>
	<g>
		<g>
			<path class="st0" d="M-2011.6,743.2c-19,0-34.5-15.2-34.5-33.9c0-18.7,15.5-33.9,34.5-33.9c8.3,0,16.4,3,22.6,8.3l-8.8,9.9
				c-3.8-3.3-8.8-5.1-13.9-5.1c-11.7,0-21.1,9.3-21.1,20.8c0,11.4,9.5,20.8,21.1,20.8c9.9,0,16.3-4.7,18.4-13.2h-18.2v-13.1h32.3
				v6.6C-1979.1,730-1992.1,743.2-2011.6,743.2z"/>
		</g>
		<polygon class="st0" points="-1943.1,703.8 -1953.1,703.8 -1953.1,693.8 -1961.1,693.8 -1961.1,703.8 -1971.1,703.8 
			-1971.1,711.8 -1961.1,711.8 -1961.1,721.8 -1953.1,721.8 -1953.1,711.8 -1943.1,711.8 		"/>
	</g>
</g>
</svg>
