<?xml version="1.0" encoding="utf-8"?>
<!-- Generator: Adobe Illustrator 19.1.1, SVG Export Plug-In . SVG Version: 6.00 Build 0)  -->
<svg version="1.1" id="Layer_1" xmlns="http://www.w3.org/2000/svg" xmlns:xlink="http://www.w3.org/1999/xlink" x="0px" y="0px"
	 viewBox="-291 389 20 18" style="enable-background:new -291 389 20 18;" xml:space="preserve">
<path d="M-276.6,391c2,0,3.6,1.6,3.6,3.6s-3.9,6.4-8,9.8c-4.1-3.5-8-7.9-8-9.8c0-2,1.6-3.6,3.6-3.6c2.4,0,4.4,3,4.4,3
	S-279.1,391-276.6,391 M-276.6,389c-1.8,0-3.4,0.9-4.4,2.3c-1-1.4-2.6-2.3-4.4-2.3c-3.1,0-5.6,2.5-5.6,5.6c0,4.4,10,12.4,10,12.4
	s10-8,10-12.4C-271,391.5-273.5,389-276.6,389L-276.6,389z"/>
</svg>
