<?xml version="1.0" encoding="utf-8"?>
<!-- Generator: Adobe Illustrator 19.1.1, SVG Export Plug-In . SVG Version: 6.00 Build 0)  -->
<svg version="1.1" id="Layer_1" xmlns="http://www.w3.org/2000/svg" xmlns:xlink="http://www.w3.org/1999/xlink" x="0px" y="0px"
	 viewBox="-2109 693.3 32 32" style="enable-background:new -2109 693.3 32 32;" xml:space="preserve">
<style type="text/css">
	.st0{fill:#316699;}
</style>
<path class="st0" d="M-2081,693.3h-24c-2.3,0-4,1.7-4,4v24c0,2.3,1.7,4,4,4h24c2.3,0,4-1.7,4-4v-24
	C-2077,695.1-2078.7,693.3-2081,693.3z M-2093,703c3.5,0,6.4,2.8,6.4,6.2c0,3.4-2.9,6.2-6.4,6.2c-3.5,0-6.4-2.8-6.4-6.2
	C-2099.4,705.8-2096.5,703-2093,703z M-2081,720.3c0,0.7-0.3,1-1,1h-22c-0.7,0-1-0.3-1-1v-14l2.5,0.5c-0.3,0.9-0.4,1.8-0.4,2.7
	c0,5.3,4.5,9.6,9.9,9.6c5.5,0,9.9-4.3,9.9-9.6c0-1-0.1-1.9-0.4-2.7l2.4-0.5V720.3z M-2081,702.3c0,0.6-0.4,1-1,1h-4
	c-0.6,0-1-0.4-1-1v-4c0-0.6,0.4-1,1-1h4c0.6,0,1,0.4,1,1V702.3z"/>
</svg>
