<?xml version="1.0" encoding="utf-8"?>
<!-- Generator: Adobe Illustrator 19.1.1, SVG Export Plug-In . SVG Version: 6.00 Build 0)  -->
<svg version="1.1" id="Layer_1" xmlns="http://www.w3.org/2000/svg" xmlns:xlink="http://www.w3.org/1999/xlink" x="0px" y="0px"
	 viewBox="0 0 53.9 73" style="enable-background:new 0 0 53.9 73;" xml:space="preserve">
<g>
	<path d="M0,73c18.2,0,35.8,0,53.9,0c-1.6-12.7-3-25.1-4.6-37.3l-1.7-14.1H34.4c-4.7,0-9.5,0-14.2,0h-3c-3.6,0-7.2,0-10.8,0L4,40.3
		c-0.1,0.8-0.2,1.6-0.3,2.4L0,73z"/>
	<path d="M13,19.5c0-0.5-0.1-1-0.1-1.4c0-7.6,6.2-13.8,13.8-13.8S40.6,10.4,40.6,18c0,0.5,0,1-0.1,1.4h4.2c0-0.5,0.1-0.9,0.1-1.4
		C44.8,8.1,36.7,0,26.7,0S8.7,8.1,8.7,18.1c0,0.5,0,1,0.1,1.4H13z"/>
</g>
</svg>
