<?xml version="1.0" encoding="utf-8"?>
<!-- Generator: Adobe Illustrator 19.1.1, SVG Export Plug-In . SVG Version: 6.00 Build 0)  -->
<svg version="1.1" id="Layer_1" xmlns="http://www.w3.org/2000/svg" xmlns:xlink="http://www.w3.org/1999/xlink" x="0px" y="0px"
	 viewBox="0 0 291.3 30.1" style="enable-background:new 0 0 291.3 30.1;" xml:space="preserve">
<style type="text/css">
	.st0{fill:#272A27;}
</style>
<path class="st0" d="M75.1,8.1c0.4-0.2,0.8-0.4,1.3-0.5c1.1-0.2,2.2-0.2,3.3,0.1c0.6,0.2,1.2,0.4,1.8,0.9l0.3,0.2l2-2l-0.4-0.3
	c-0.9-0.6-1.8-1.1-2.7-1.4c-1.7-0.5-3.4-0.5-5.1-0.1c-0.8,0.2-1.5,0.6-2.2,1c-0.6,0.5-1.2,1.1-1.6,1.8c-0.4,0.7-0.6,1.6-0.6,2.6
	c0,1.3,0.3,2.3,0.8,3c0.5,0.7,1.2,1.3,1.9,1.7c0.7,0.4,1.6,0.7,2.4,0.9c0.8,0.2,1.6,0.4,2.3,0.6c0.7,0.2,1.2,0.5,1.7,0.9
	c0.4,0.3,0.6,0.8,0.6,1.4c0,0.6-0.1,1.1-0.4,1.5c-0.2,0.5-0.5,0.8-0.9,1.1c-0.4,0.3-0.8,0.6-1.2,0.7c-1.1,0.4-2.1,0.3-3.2,0
	c-0.6-0.2-1.2-0.5-1.9-0.9L73,21.3l-1.9,2l0.4,0.3c0.9,0.6,1.8,1.1,2.6,1.4c0.9,0.3,1.8,0.4,2.7,0.4c1,0,1.9-0.1,2.7-0.4
	c0.8-0.3,1.6-0.7,2.2-1.2c0.6-0.5,1.1-1.2,1.4-2c0.3-0.8,0.5-1.7,0.5-2.7c0-1.2-0.3-2.2-0.8-2.9c-0.5-0.7-1.2-1.2-1.9-1.6
	c-0.7-0.4-1.6-0.7-2.4-0.9c-0.8-0.2-1.6-0.4-2.3-0.7c-0.7-0.2-1.2-0.6-1.7-0.9c-0.4-0.3-0.6-0.8-0.6-1.5c0-0.6,0.1-1,0.3-1.4
	C74.4,8.6,74.7,8.4,75.1,8.1z"/>
<rect x="88.7" y="22.6" class="st0" width="13.6" height="2.7"/>
<rect x="88.7" y="13.7" class="st0" width="11.8" height="2.7"/>
<rect x="88.7" y="4.7" class="st0" width="13.6" height="2.7"/>
<polygon class="st0" points="122.7,19.2 108.3,4.2 108.3,26.2 111,22.5 111,10.9 125.5,26 125.5,3.9 122.7,7.6 "/>
<polygon class="st0" points="132.7,25.4 135.5,25.4 135.5,7.5 142.5,7.5 142.5,4.7 132.7,4.7 "/>
<rect x="147.1" y="13.7" class="st0" width="11.8" height="2.7"/>
<rect x="147.1" y="22.6" class="st0" width="13.6" height="2.7"/>
<rect x="147.1" y="4.7" class="st0" width="13.6" height="2.7"/>
<polygon class="st0" points="181.2,19.2 166.7,4.2 166.7,26.2 169.5,22.5 169.5,10.9 183.9,26 183.9,3.9 181.2,7.6 "/>
<path class="st0" d="M203.9,7.8c-0.9-0.9-2-1.6-3.2-2.2c-1.2-0.5-2.5-0.8-3.9-0.8h-6.8v2.7h7c1,0,2,0.2,2.8,0.7
	c0.9,0.4,1.7,1,2.3,1.7c0.7,0.7,1.2,1.5,1.5,2.4c0.4,0.9,0.6,1.8,0.6,2.8c0,1-0.2,2-0.6,2.9c-0.4,0.9-0.9,1.7-1.6,2.4
	c-0.7,0.7-1.5,1.2-2.3,1.6c-0.9,0.4-1.8,0.6-2.7,0.6h-7v2.7h0.4h6.4c1.4,0,2.8-0.3,4-0.9c1.2-0.6,2.3-1.3,3.2-2.3
	c0.9-0.9,1.7-2,2.2-3.2c0.5-1.2,0.8-2.5,0.8-3.9c0-1.4-0.3-2.8-0.8-4C205.6,9.8,204.8,8.7,203.9,7.8z"/>
<path class="st0" d="M227.8,7.8c-0.9-0.9-2-1.7-3.3-2.2c-2.5-1.1-5.6-1.1-8,0c-1.2,0.5-2.4,1.3-3.3,2.2c-0.9,0.9-1.7,2-2.2,3.3
	c-0.5,1.2-0.8,2.6-0.8,4c0,1.4,0.3,2.7,0.8,4c0.5,1.2,1.3,2.3,2.2,3.3c0.9,0.9,2,1.7,3.3,2.2c1.2,0.5,2.6,0.8,4,0.8
	c1.4,0,2.8-0.3,4-0.8c1.2-0.5,2.3-1.3,3.3-2.2c0.9-0.9,1.7-2,2.2-3.3c0.5-1.3,0.8-2.6,0.8-4c0-1.4-0.3-2.8-0.8-4
	C229.5,9.8,228.8,8.7,227.8,7.8z M227.5,17.9c-0.4,0.9-1,1.7-1.6,2.4c-0.7,0.7-1.5,1.2-2.4,1.7c-1.8,0.8-4,0.8-5.8,0
	c-0.9-0.4-1.7-1-2.4-1.7c-0.7-0.7-1.2-1.5-1.6-2.4c-0.4-0.9-0.6-1.9-0.6-2.9c0-1,0.2-2,0.6-2.9c0.4-0.9,1-1.7,1.6-2.4
	c0.7-0.7,1.5-1.2,2.4-1.6c0.9-0.4,1.9-0.6,2.9-0.6s2,0.2,2.9,0.6c0.9,0.4,1.7,1,2.4,1.6c0.7,0.7,1.2,1.5,1.6,2.4
	c0.4,0.9,0.6,1.9,0.6,2.9C228.1,16.1,227.9,17,227.5,17.9z"/>
<polygon class="st0" points="243.4,4.7 240.6,4.7 240.6,25.4 254.2,25.4 254.2,22.6 243.4,22.6 "/>
<rect x="258.4" y="4.7" class="st0" width="3.1" height="8.5"/>
<path class="st0" d="M277.1,12.9c0.4-0.6,0.7-1.2,0.9-1.6c0.2-0.5,0.3-1.1,0.3-1.6c0-0.7-0.1-1.3-0.4-1.9c-0.2-0.6-0.6-1.1-1.1-1.6
	c-0.4-0.4-1-0.8-1.6-1c-1.2-0.5-2.7-0.5-3.9,0c-0.6,0.3-1.1,0.6-1.6,1c-0.4,0.4-0.8,1-1.1,1.6c-0.2,0.6-0.4,1.2-0.4,1.9
	c0,0.6,0.1,1.1,0.3,1.7c0.2,0.5,0.5,1.1,1,1.7c-1,0.8-1.7,1.7-2.1,2.5c-0.5,1-0.8,2-0.8,3c0,0.9,0.2,1.8,0.5,2.6
	c0.3,0.8,0.8,1.5,1.4,2.2c0.6,0.6,1.3,1.1,2.1,1.5c0.8,0.4,1.7,0.5,2.6,0.5c0.9,0,1.8-0.2,2.6-0.5c0.8-0.4,1.6-0.8,2.2-1.5
	c0.6-0.6,1.1-1.3,1.5-2.2c0.4-0.8,0.5-1.7,0.5-2.6c0-1.1-0.3-2.1-0.8-3.1C278.9,14.6,278.1,13.7,277.1,12.9z M271.7,8.1
	c0.4-0.4,0.9-0.6,1.6-0.6c0.6,0,1.1,0.2,1.6,0.6c0.4,0.4,0.6,0.9,0.6,1.6c0,0.3-0.1,0.5-0.2,0.8c-0.1,0.3-0.3,0.5-0.5,0.7
	c-0.2,0.2-0.4,0.4-0.7,0.5c-0.5,0.2-1.1,0.2-1.6,0c-0.3-0.1-0.5-0.2-0.7-0.4c-0.2-0.2-0.4-0.4-0.5-0.7c-0.1-0.3-0.2-0.5-0.2-0.8
	C271.1,9,271.3,8.5,271.7,8.1z M277.1,20.1c-0.2,0.5-0.5,0.9-0.9,1.3c-0.4,0.4-0.8,0.7-1.3,0.9c-1,0.4-2.1,0.4-3.1,0
	c-0.5-0.2-0.9-0.5-1.2-0.9c-0.3-0.4-0.6-0.8-0.8-1.3c-0.2-0.5-0.3-1-0.3-1.6c0-0.5,0.1-1.1,0.3-1.6c0.2-0.5,0.5-0.9,0.8-1.3
	c0.3-0.4,0.8-0.7,1.2-0.9c0.5-0.2,1-0.3,1.5-0.3c0.5,0,1.1,0.1,1.6,0.3c0.5,0.2,0.9,0.5,1.3,0.9c0.4,0.4,0.7,0.8,0.9,1.3
	c0.2,0.5,0.3,1,0.3,1.6C277.4,19.1,277.3,19.7,277.1,20.1z"/>
<path class="st0" d="M291.3,8.5c0-0.2,0-1.7-1.1-2.8c-0.7-0.7-1.6-1-2.7-1c-1.1,0-2,0.4-2.7,1c-1.1,1.1-1.1,2.7-1.1,2.8l0,2.7
	c0,0.2,0,1.7,1.1,2.8c0.7,0.7,1.6,1,2.7,1c1.1,0,2-0.4,2.7-1c1.1-1.1,1.1-2.6,1.1-2.8L291.3,8.5z M288.5,12.3
	c-0.2,0.2-0.5,0.3-0.9,0.3c-0.4,0-0.7-0.1-0.9-0.3c-0.3-0.4-0.4-1-0.4-1l0-2.8c0-0.2,0.1-0.7,0.4-1c0.2-0.2,0.5-0.3,0.9-0.3
	c0.4,0,0.7,0.1,0.9,0.3c0.3,0.4,0.4,1,0.4,1l0,2.8C288.8,11.4,288.7,12,288.5,12.3z"/>
<rect x="14" y="11.5" transform="matrix(-0.7012 0.7129 -0.7129 -0.7012 56.2572 2.2129)" class="st0" width="27.4" height="2.8"/>
<rect x="18.5" y="15.8" transform="matrix(0.7012 -0.7129 0.7129 0.7012 -2.6376 28.0528)" class="st0" width="27.4" height="2.8"/>
<polygon class="st0" points="53.5,11.1 42.3,0 38.4,0 51.5,13.1 "/>
<polygon class="st0" points="57.8,6.7 51.1,0 47.2,0 55.8,8.6 "/>
<polygon class="st0" points="23.7,11.1 12.6,0 8.7,0 21.8,13.1 "/>
<polygon class="st0" points="28.1,6.7 21.4,0 17.5,0 26.1,8.6 "/>
<polygon class="st0" points="51.3,30.1 38.2,17 36.3,19 47.4,30.1 "/>
<polygon class="st0" points="42.5,30.1 33.9,21.5 32,23.4 38.6,30.1 "/>
<polygon class="st0" points="21.1,30.1 8,17 6.1,19 17.2,30.1 "/>
<polygon class="st0" points="1.8,23.4 8.4,30.1 12.3,30.1 3.7,21.5 "/>
<polygon class="st0" points="48.8,23.6 59.8,12.3 59.8,8.4 46.8,21.6 "/>
<polygon class="st0" points="51.3,25.9 53.3,27.8 59.8,21.2 59.8,17.2 "/>
<polygon class="st0" points="11,6.1 0,17.4 0,21.3 13,8.1 "/>
<polygon class="st0" points="8.5,3.8 6.6,1.9 0,8.5 0,12.5 "/>
</svg>
