<?xml version="1.0" encoding="utf-8"?>
<!-- Generator: Adobe Illustrator 19.1.1, SVG Export Plug-In . SVG Version: 6.00 Build 0)  -->
<svg version="1.1" id="Layer_1" xmlns="http://www.w3.org/2000/svg" xmlns:xlink="http://www.w3.org/1999/xlink" x="0px" y="0px"
	 viewBox="-2116 704.3 14 10" style="enable-background:new -2116 704.3 14 10;" xml:space="preserve">
<g id="Icons_with_numbers">
	<g id="Group" transform="translate(-336.000000, 0.000000)">
		<path id="Shape" d="M-1771.3,709.8l4.9,4.2c-0.2,0.2-0.4,0.3-0.7,0.3h-12c-0.3,0-0.5-0.1-0.7-0.3l5-4.2l1.7,1.5L-1771.3,709.8z
			 M-1773,710.3l-6.7-5.7c0.2-0.2,0.4-0.3,0.7-0.3h12c0.3,0,0.5,0.1,0.7,0.3L-1773,710.3z M-1766,713.5l-4.8-4.1l4.8-4.2V713.5
			L-1766,713.5z M-1780,713.5v-8.3l4.8,4.2L-1780,713.5L-1780,713.5z"/>
	</g>
</g>
</svg>
