<?xml version="1.0" encoding="utf-8"?>
<!-- Generator: Adobe Illustrator 19.1.1, SVG Export Plug-In . SVG Version: 6.00 Build 0)  -->
<svg version="1.1" id="Layer_1" xmlns="http://www.w3.org/2000/svg" xmlns:xlink="http://www.w3.org/1999/xlink" x="0px" y="0px"
	 viewBox="0 0 309.5 324.1" style="enable-background:new 0 0 309.5 324.1;" xml:space="preserve">
<path d="M232.4,215.4c-0.3,2.5-1,4.9-1,7.4c-0.1,27.8,0,55.7-0.1,83.5c0,2.8-0.2,5.7-1,8.4c-1.8,6.7-6.5,9.7-14,9.5
	c-6.5-0.2-10.3-3.3-11.8-10c-0.6-2.6-0.6-5.3-0.6-7.9c0-28.5-0.1-57,0.1-85.5c0-4.5-1.1-6.1-5.8-5.9c-8.1,0.4-16.3,0.1-25.3,0.1
	c10-31.5,19.8-62.2,29.5-92.9c-0.7-0.3-1.4-0.7-2.1-1c-1.2,1.9-2.8,3.6-3.5,5.6c-4.1,11.6-7.7,23.4-12.1,35c-2.3,6-5.4,11.8-9,17.2
	c-3.4,5.2-7.8,6.2-12,4.3c-5.2-2.3-5.5-6.8-4.9-11.4c0.4-2.9,1.2-5.9,2.2-8.7c8.7-26.1,17.6-52.1,26.4-78.1
	c4.2-12.4,12.2-18.3,25.4-18.4c16-0.1,32-0.1,48,0c10.8,0,17.1,4.3,20.9,14.5c3.6,10,6.8,20.2,10.2,30.3c5.1,15.5,10.4,31,15.2,46.6
	c1.5,4.7,2.2,9.8,2.4,14.7c0.3,5.9-2.6,9.3-7.3,10.5c-5.2,1.4-8.4,0.1-11.5-5.4c-2.2-4.1-4.1-8.4-5.6-12.8
	c-4.6-13.7-9-27.5-13.5-41.3c-0.4-1.2-1.1-2.2-1.6-3.4c-0.5,0.1-1.1,0.2-1.6,0.3c0.2,2,0.2,4.1,0.7,6c7.5,27.1,15.1,54.2,22.7,81.3
	c0.6,2,1.1,4.1,1.9,7.3c-5.7,0-10.8-0.1-15.8,0c-4.9,0.1-11.4-1.2-14.3,1.3c-2.5,2.2-1,9.1-1,13.8c-0.1,25.3,0,50.7-0.1,76
	c0,3.4-0.7,7-1.9,10.2c-2,5.1-6,7.8-11.7,7.8c-5.9,0-10-2.8-12-8.1c-1.1-3-1.5-6.5-1.5-9.8c-0.1-27.5,0-55-0.1-82.5
	c0-2.7-0.4-5.4-0.7-8.1C234,215.5,233.2,215.4,232.4,215.4z"/>
<path d="M59.3,215.8c-0.5,2.1-1.5,4.3-1.6,6.4c-0.2,11.7-0.1,23.3-0.1,35c0,16.5,0,33,0,49.5c0,11-5.5,16.6-16,16.7
	c-9.7,0.1-15.6-6-15.7-16.6c-0.1-38.7,0-77.3,0-116c0-21.8,0.1-43.7-0.1-65.5c0-2.4-1.6-4.8-2.5-7.2c-0.6,2.4-1.8,4.7-1.8,7.1
	c-0.2,14.3,0,28.7-0.1,43c0,3-0.4,6-1.1,8.9c-1.1,4.5-4.4,6.4-8.8,6.7c-4.3,0.3-7.8-1.3-9.1-5.4c-1.3-3.9-2.2-8.1-2.2-12.2
	c-0.2-25.2-0.2-50.3,0-75.5c0-4.6,0.8-9.5,2.6-13.5c3.2-7.2,9.3-11,17.5-11c26.2,0.1,52.3,0,78.5,0.1c11.7,0,19.9,8.1,19.9,19.8
	c0.1,25.8,0,51.7-0.3,77.5c0,4.1-1,8.3-2.1,12.2c-1.2,4.3-4.2,6.6-9,6.3c-4.6-0.2-6.9-3-8-6.9c-0.8-2.9-1.3-5.9-1.3-8.8
	c-0.2-13.5-0.2-27-0.4-40.5c0-2.7-0.6-5.3-0.9-8c-0.7,0-1.4,0-2.1-0.1c-0.4,2.6-1.1,5.1-1.1,7.7c-0.1,60.3-0.1,120.7-0.1,181
	c0,10.3-8.2,18.3-17.6,17.2c-7.7-0.9-13.7-8.5-13.7-17.7c-0.1-22.3,0-44.7,0-67c0-6,0.1-12-0.1-18c0-1.7-0.6-3.3-0.9-5
	C60.5,216,59.9,215.9,59.3,215.8z"/>
<path d="M236.9,0c15.5,0,30.7,15.2,30.8,30.9c0.1,15.7-15.3,30.7-31.4,30.9c-15.7,0.1-30.3-14.3-30.4-29.8
	C205.8,15.7,221.1,0,236.9,0z"/>
<path d="M58.8,0.2c15.3,0.1,29.9,15.3,29.9,31.1c0,15.4-15.2,29.8-31.2,29.7C41.6,61,27.5,47,27.7,31.4C27.8,15.3,43,0.2,58.8,0.2z"
	/>
</svg>
