<?xml version="1.0" encoding="utf-8"?>
<!-- Generator: Adobe Illustrator 19.1.1, SVG Export Plug-In . SVG Version: 6.00 Build 0)  -->
<svg version="1.1" id="Layer_1" xmlns="http://www.w3.org/2000/svg" xmlns:xlink="http://www.w3.org/1999/xlink" x="0px" y="0px"
	 viewBox="-289 384 32 26" style="enable-background:new -289 384 32 26;" xml:space="preserve">
<g transform="translate(384 144)">
	<path d="M-672,262h12c0.6,0,1-0.3,1-0.8v-1.5c0-0.4-0.4-0.8-1-0.8h-12c-0.6,0-1,0.3-1,0.8v1.5C-673,261.7-672.6,262-672,262z
		 M-672,266h12c0.6,0,1-0.3,1-0.8v-1.5c0-0.4-0.4-0.8-1-0.8h-12c-0.6,0-1,0.3-1,0.8v1.5C-673,265.7-672.6,266-672,266z M-672,258h12
		c0.6,0,1-0.3,1-0.8v-1.5c0-0.4-0.4-0.8-1-0.8h-12c-0.6,0-1,0.3-1,0.8v1.5C-673,257.7-672.6,258-672,258z M-657,257.6
		c0-0.1,0-0.2,0-0.4v-1.5c0-1.5-1.3-2.8-3-2.8h-4c0-2.8,2.2-5,5-5c2.8,0,5,2.2,5,5C-654,255.1-655.3,256.8-657,257.6z M-673,244h28
		v18h-12.1c0.1-0.2,0.1-0.5,0.1-0.8V260h6c0-2.2,1.8-4,4-4v-6c-2.2,0-4-1.8-4-4h-16c0,2.2-1.8,4-4,4v3h-1c-0.4,0-0.7,0.1-1,0.2V244z
		 M-641,240v20h-2v-18h-28v-2H-641z"/>
</g>
</svg>
