<?xml version="1.0" encoding="utf-8"?>
<!-- Generator: Adobe Illustrator 19.1.1, SVG Export Plug-In . SVG Version: 6.00 Build 0)  -->
<svg version="1.1" id="Layer_1" xmlns="http://www.w3.org/2000/svg" xmlns:xlink="http://www.w3.org/1999/xlink" x="0px" y="0px"
	 viewBox="-2116 700.3 18 18" style="enable-background:new -2116 700.3 18 18;" xml:space="preserve">
<g id="Page-1">
	<g id="Icons-Communication" transform="translate(-85.000000, -126.000000)">
		<g id="phone" transform="translate(85.000000, 126.000000)">
			<path id="Shape" d="M-2112.4,708.1c1.4,2.8,3.8,5.1,6.6,6.6l2.2-2.2c0.3-0.3,0.7-0.4,1-0.2c1.1,0.4,2.3,0.6,3.6,0.6
				c0.6,0,1,0.4,1,1v3.4c0,0.6-0.4,1-1,1c-9.4,0-17-7.6-17-17c0-0.6,0.4-1,1-1h3.5c0.6,0,1,0.4,1,1c0,1.2,0.2,2.4,0.6,3.6
				c0.1,0.3,0,0.7-0.2,1L-2112.4,708.1L-2112.4,708.1z"/>
		</g>
	</g>
</g>
</svg>
