<?xml version="1.0" encoding="utf-8"?>
<!-- Generator: Adobe Illustrator 19.1.1, SVG Export Plug-In . SVG Version: 6.00 Build 0)  -->
<svg version="1.1" id="Layer_1" xmlns="http://www.w3.org/2000/svg" xmlns:xlink="http://www.w3.org/1999/xlink" x="0px" y="0px"
	 viewBox="0 0 36.1 14.5" style="enable-background:new 0 0 36.1 14.5;" xml:space="preserve">
<style type="text/css">
	.st0{fill:#333333;}
</style>
<path class="st0" d="M34.9,0c-0.7,0-1.2,0.5-1.2,1.2v0.4v4.6c0,0.7-0.5,1.2-1.2,1.2c-0.7,0-1.2-0.5-1.2-1.2V1.6V1.2
	C31.3,0.5,30.7,0,30,0s-1.2,0.5-1.2,1.2v2.5c0,0.7-0.5,1.2-1.2,1.2c-0.7,0-1.2-0.5-1.2-1.2V1.6h0V1.2c0-0.7-0.5-1.2-1.2-1.2
	C24.6,0,24,0.5,24,1.2v0.4v4.6c0,0.7-0.5,1.2-1.2,1.2c-0.7,0-1.2-0.5-1.2-1.2V1.6V1.2c0-0.7-0.5-1.2-1.2-1.2c-0.7,0-1.2,0.5-1.2,1.2
	v2.5c0,0.6-0.5,1.1-1.2,1.1c-0.7,0-1.2-0.5-1.2-1.2v-2V1.2c0-0.7-0.5-1.2-1.2-1.2c-0.7,0-1.2,0.5-1.2,1.2v0.4v4.5
	c0,0.7-0.5,1.2-1.2,1.2c-0.7,0-1.2-0.5-1.2-1.2V1.6V1.2c0-0.7-0.5-1.2-1.2-1.2c-0.7,0-1.2,0.5-1.2,1.2v0.4v2c0,0.7-0.5,1.2-1.2,1.2
	S7.3,4.3,7.3,3.6v-2V1.2C7.3,0.6,6.8,0,6.1,0S4.9,0.6,4.9,1.2v0.4v4.5c0,0.7-0.5,1.2-1.2,1.2S2.4,6.8,2.4,6.1V1.6V1.2
	C2.4,0.6,1.9,0,1.2,0S0,0.6,0,1.2v1.4v4.8v6.1c0,0.6,0.5,1,1,1h34.1c0.5,0,1-0.4,1-1V7.4V2.6V1.2C36.1,0.5,35.6,0,34.9,0z"/>
</svg>
