<?xml version="1.0" encoding="utf-8"?>
<!-- Generator: Adobe Illustrator 19.1.1, SVG Export Plug-In . SVG Version: 6.00 Build 0)  -->
<svg version="1.1" id="Layer_1" xmlns="http://www.w3.org/2000/svg" xmlns:xlink="http://www.w3.org/1999/xlink" x="0px" y="0px"
	 viewBox="0 0 86.9 88.3" style="enable-background:new 0 0 86.9 88.3;" xml:space="preserve">
<style type="text/css">
	.st0{fill:none;stroke:#000000;stroke-width:2;stroke-miterlimit:10;}
	.st1{fill:none;stroke:#000000;stroke-width:2;stroke-linecap:square;stroke-linejoin:bevel;stroke-miterlimit:10;}
	.st2{fill:none;stroke:#000000;stroke-width:2;stroke-linecap:round;stroke-linejoin:round;stroke-miterlimit:10;}
</style>
<g>
	<path class="st0" d="M78.4,3.9c1.5-0.6,2.4,0.2,2,1.8l-2.8,10c-0.4,1.6,0.1,3.9,1.1,5.2l6.6,8c1.1,1.3,0.6,2.4-1.1,2.4l-10.4,0.4
		c-1.6,0.1-3.7,1.3-4.6,2.7l-5.5,8.8c-0.9,1.4-2.1,1.3-2.6-0.3l-3.6-9.7c-0.6-1.5-2.3-3.1-3.9-3.6l-10-2.5c-1.6-0.4-1.8-1.6-0.6-2.6
		l8.1-6.4c1.3-1,2.3-3.2,2.2-4.9L52.6,2.8c-0.1-1.6,0.9-2.2,2.3-1.3l8.6,5.7c1.4,0.9,3.7,1.2,5.3,0.6L78.4,3.9z"/>
</g>
<path class="st1" d="M54.8,65.3c0,0,3.1-0.3,7-3.5c3.4-2.8,4-7.6,4-7.6s0.4,5.2,4.4,8.3c3.4,2.6,6.4,2.9,6.4,2.9s-3.8-0.3-7.2,2.8
	c-3.8,3.4-3.8,7.8-3.8,7.8S65.6,66.8,54.8,65.3z"/>
<path class="st1" d="M25.6,12.1c0,0,1.8-0.2,4.1-2c2-1.6,2.3-4.4,2.3-4.4s0.3,3,2.5,4.8c2,1.5,3.7,1.7,3.7,1.7s-2.2-0.2-4.2,1.6
	c-2.2,2-2.2,4.5-2.2,4.5S32,13.1,25.6,12.1z"/>
<path class="st1" d="M5.3,30.2c0,0,2.5-0.2,5.6-2.8c2.7-2.2,3.2-6.1,3.2-6.1s0.3,4.2,3.5,6.6c2.7,2.1,5.1,2.3,5.1,2.3
	s-3-0.2-5.7,2.3c-3,2.7-3,6.2-3,6.2S14,31.4,5.3,30.2z"/>
<path class="st2" d="M58.3,35.2l-8,8.3L9.6,85.8c-1.9,2-5.1,2-7.1,0.1l0,0c-2-1.9-2-5.1-0.1-7.1l48.2-50.1"/>
<line class="st1" x1="50.8" y1="43" x2="43.9" y2="35.8"/>
</svg>
